<svg class="u-svg-content" viewBox="0 0 510.545 510.545" id="svg-d253">
  <path id="XMLID_1085_"
    d="m.181 0v510.545h510.183v-510.545zm480.183 30v210.091h-83.046v47c0 12.131-9.869 22-22 22s-22-9.869-22-22v-47h-83.045v-53.046h17c28.673 0 52-23.327 52-52s-23.327-52-52-52h-17v-53.045zm-450.183 0h210.091v83.045h47c12.131 0 22 9.869 22 22.001 0 12.13-9.869 21.999-22 21.999h-47v83.409h-53.046v-17c0-28.673-23.327-52-52-52s-52 23.327-52 52v17h-53.045zm0 450.545v-210.091h83.045v-47c0-12.131 9.869-22 22-22 12.13 0 22 9.869 22 22v47h83.046v53.045h-17c-28.673 0-52 23.327-52 52.001 0 28.672 23.327 51.999 52 51.999h17v53.046zm450.183 0h-210.092v-83.046h-47c-12.131 0-22-9.869-22-22s9.869-22 22-22h47v-83.408h53.045v17c0 28.673 23.327 52 52 52s52-23.327 52-52v-17h53.046v210.454z">
  </path>
</svg>
